<svg width="463" height="59" viewBox="0 0 463 59" fill="none" xmlns="http://www.w3.org/2000/svg">
<path d="M0.910004 1.28H13.37V57.91H0.910004V1.28Z" fill="#13625D"/>
<path d="M27.53 1.28H39.02L65.56 36.15V1.28H77.86V57.91H67.26L39.83 21.91V57.91H27.53V1.28Z" fill="#13625D"/>
<path d="M91.43 1.28H102.92L129.46 36.15V1.28H141.76V57.91H131.16L103.73 21.91V57.91H91.43V1.28Z" fill="#13625D"/>
<path d="M152.83 29.76V29.6C152.83 13.5 165.53 0.309998 183.01 0.309998C200.48 0.309998 213.02 13.34 213.02 29.44V29.6C213.02 45.7 200.32 58.89 182.84 58.89C165.37 58.88 152.83 45.86 152.83 29.76ZM200 29.76V29.6C200 19.89 192.88 11.8 182.85 11.8C172.82 11.8 165.86 19.73 165.86 29.44V29.6C165.86 39.31 172.98 47.4 183.01 47.4C193.04 47.4 200 39.47 200 29.76Z" fill="#13625D"/>
<path d="M215.61 1.28H229.36L244.17 41.16L258.98 1.28H272.41L249.52 58.32H238.52L215.61 1.28Z" fill="#13625D"/>
<path d="M292.46 0.880005H303.95L328.22 57.92H315.2L310.02 45.22H286.07L280.89 57.92H268.19L292.46 0.880005ZM305.57 34.21L298.05 15.84L290.53 34.21H305.57Z" fill="#13625D"/>
<path d="M361.22 1.28H383.31C401.11 1.28 413.41 13.5 413.41 29.43V29.59C413.41 45.53 401.11 57.91 383.31 57.91H361.22V1.28ZM373.68 12.53V46.67H383.31C393.42 46.67 400.38 39.79 400.38 29.76V29.6C400.38 19.57 393.42 12.53 383.31 12.53H373.68Z" fill="#997344"/>
<path d="M440.58 27.25L448.75 14.55H461.61L446.97 35.75L462.26 57.92H449.07L440.33 44.41L431.59 57.92H418.73L433.94 35.91L419.3 14.55H432.49L440.58 27.25Z" fill="#997344"/>
</svg>
