<?xml version="1.0" encoding="utf-8"?>
<!-- Generator: Adobe Illustrator 28.1.0, SVG Export Plug-In . SVG Version: 6.00 Build 0)  -->
<svg version="1.1" id="Layer_1" xmlns="http://www.w3.org/2000/svg" xmlns:xlink="http://www.w3.org/1999/xlink" x="0px" y="0px"
	 viewBox="0 0 554.81 645.67" style="enable-background:new 0 0 554.81 645.67;" xml:space="preserve">
<style type="text/css">
	.st0{fill:url(#SVGID_1_);}
	.st1{fill:url(#SVGID_00000129898459679749075410000017960542912501231535_);}
	.st2{fill:url(#SVGID_00000010272580833979909840000015357587274332400035_);}
	.st3{fill:url(#SVGID_00000084506103780158339000000001308939031351073471_);}
	.st4{fill:url(#SVGID_00000033355928123282499630000016939608995689002649_);}
	.st5{fill:url(#SVGID_00000090279326121635346970000015130823571075882420_);}
	.st6{fill:url(#SVGID_00000070080522567976108750000001231759866059946136_);}
	.st7{fill:url(#SVGID_00000099636184348204804570000007770710642371662010_);}
	.st8{fill:#13625D;}
	.st9{fill:#997344;}
	.st10{fill:url(#SVGID_00000085934194512543542490000016719469836122317222_);}
	.st11{fill:#003531;}
	.st12{fill:url(#SVGID_00000174588864626716747360000001417020689287384985_);}
	.st13{fill:url(#SVGID_00000051353734268169699520000008602104413371049347_);}
</style>
<g>
	<g>
		<g>
			<g>
				<linearGradient id="SVGID_1_" gradientUnits="userSpaceOnUse" x1="240.4565" y1="459.0829" x2="214.4748" y2="192.6609">
					<stop  offset="0" style="stop-color:#DBAE72"/>
					<stop  offset="1" style="stop-color:#997344"/>
				</linearGradient>
				<path class="st0" d="M234.26,322.21c-9.13-8.9-14.21-20.78-14.21-33.12c0-12.34,5.08-24.22,14.21-33.12
					c5.39-5.25-2.87-13.5-8.25-8.25c-11.12,10.84-17.63,25.81-17.63,41.37c0,15.57,6.5,30.54,17.63,41.37
					C231.39,335.71,239.65,327.47,234.26,322.21L234.26,322.21z"/>
			</g>
		</g>
		<g>
			<g>
				
					<linearGradient id="SVGID_00000134209334804459943820000013936568708124120198_" gradientUnits="userSpaceOnUse" x1="254.6618" y1="457.6976" x2="228.6801" y2="191.2756">
					<stop  offset="0" style="stop-color:#DBAE72"/>
					<stop  offset="1" style="stop-color:#997344"/>
				</linearGradient>
				<path style="fill:url(#SVGID_00000134209334804459943820000013936568708124120198_);" d="M255.93,292.98h-38.95v-7.78h38.95
					c2.15,0,3.89,1.74,3.89,3.89v0C259.82,291.24,258.08,292.98,255.93,292.98z"/>
			</g>
			<g>
				
					<linearGradient id="SVGID_00000139264430653919917300000007032540569027513241_" gradientUnits="userSpaceOnUse" x1="263.1682" y1="456.868" x2="237.1865" y2="190.446">
					<stop  offset="0" style="stop-color:#DBAE72"/>
					<stop  offset="1" style="stop-color:#997344"/>
				</linearGradient>
				<path style="fill:url(#SVGID_00000139264430653919917300000007032540569027513241_);" d="M268.9,274.6h-51.3v-7.78h51.3
					c2.15,0,3.89,1.74,3.89,3.89l0,0C272.79,272.86,271.05,274.6,268.9,274.6z"/>
			</g>
			<g>
				
					<linearGradient id="SVGID_00000183959190479605093060000014409545487700485790_" gradientUnits="userSpaceOnUse" x1="259.6169" y1="457.2144" x2="233.6352" y2="190.7923">
					<stop  offset="0" style="stop-color:#DBAE72"/>
					<stop  offset="1" style="stop-color:#997344"/>
				</linearGradient>
				<path style="fill:url(#SVGID_00000183959190479605093060000014409545487700485790_);" d="M268.9,311.36h-51.3v-7.78h51.3
					c2.15,0,3.89,1.74,3.89,3.89l0,0C272.79,309.62,271.05,311.36,268.9,311.36z"/>
			</g>
		</g>
	</g>
</g>
<linearGradient id="SVGID_00000120556785591814792090000017317767295540578957_" gradientUnits="userSpaceOnUse" x1="202.8076" y1="499.6909" x2="202.8076" y2="240.383">
	<stop  offset="0" style="stop-color:#B4D9CD"/>
	<stop  offset="0.0678" style="stop-color:#90B8AF"/>
	<stop  offset="0.1788" style="stop-color:#67948D"/>
	<stop  offset="0.2865" style="stop-color:#477C76"/>
	<stop  offset="0.3887" style="stop-color:#2E6D67"/>
	<stop  offset="0.4831" style="stop-color:#1B645F"/>
	<stop  offset="0.5622" style="stop-color:#13625D"/>
	<stop  offset="1" style="stop-color:#003531"/>
</linearGradient>
<path style="fill:url(#SVGID_00000120556785591814792090000017317767295540578957_);" d="M158.8,240.45
	c-11.64,10.56-22.36,21.53-32.11,32.71c-5.62,18.92-8.71,36.89-8.71,53.91c0,63.44,42.19,117.02,100.03,134.25
	c23.49-11.1,47.11-26.1,69.63-44.28c-9.32,3.07-19.27,4.74-29.6,4.74c-52.22,0-94.71-42.49-94.71-94.71
	c0-33.7,17.24-75.84,43.95-124.15C190.87,213.61,174.55,226.16,158.8,240.45z"/>
<linearGradient id="SVGID_00000030468271834857885810000014338595119000187537_" gradientUnits="userSpaceOnUse" x1="251.2935" y1="175.7378" x2="263.8654" y2="416.8624">
	<stop  offset="0" style="stop-color:#DBAE72"/>
	<stop  offset="1" style="stop-color:#997344"/>
</linearGradient>
<path style="fill:url(#SVGID_00000030468271834857885810000014338595119000187537_);" d="M223.12,396.99
	c0.02-0.19,0.14-1.24,0.15-1.39c0.18-1.24,0.4-2.48,0.67-3.7c0.54-2.47,1.26-4.9,2.17-7.25c0.09-0.24,0.19-0.48,0.29-0.72
	c0.01-0.02,0.01-0.02,0.02-0.04c0.24-0.54,0.49-1.08,0.76-1.62c0.52-1.05,1.07-2.09,1.67-3.1c0.58-1,1.21-1.97,1.86-2.93
	c0.32-0.47,0.66-0.94,1-1.4c0.12-0.17,0.19-0.27,0.24-0.34c0.02-0.02,0.07-0.08,0.19-0.23c2.93-3.56,6.21-6.76,9.78-9.67
	c0.44-0.36,0.89-0.72,1.34-1.07c0.01-0.01,0.02-0.01,0.03-0.03c0.2-0.15,0.4-0.31,0.6-0.45c1.02-0.75,2.04-1.5,3.08-2.22
	c1.96-1.37,3.96-2.69,5.98-3.99c4.12-2.64,8.32-5.16,12.49-7.72c8.72-5.37,17.39-11.04,24.86-18.09
	c20.67-19.5,24.36-52.77,7.14-75.75c-12.95-17.28-33.45-25.94-50.67-38.06c-0.9-0.63-1.79-1.27-2.67-1.93
	c-0.18-0.13-0.71-0.54-0.88-0.67c-0.44-0.34-0.87-0.69-1.3-1.04c-1.79-1.46-3.52-2.99-5.17-4.6c-1.63-1.6-3.17-3.3-4.62-5.07
	c-0.12-0.14-0.18-0.21-0.2-0.24c-0.05-0.07-0.13-0.18-0.23-0.33c-0.29-0.4-0.58-0.8-0.86-1.2c-0.71-1.02-1.37-2.06-2-3.13
	c-0.55-0.94-1.07-1.9-1.55-2.87c-0.26-0.53-0.51-1.07-0.76-1.61c-0.03-0.07-0.09-0.21-0.14-0.32c-0.09-0.22-0.18-0.45-0.27-0.67
	c-0.07-0.18-0.13-0.36-0.2-0.54c-1.23,2.12-2.42,4.21-3.59,6.27L219,205.2c3.2,5.37,7.29,10.19,12.01,14.39
	c7.46,6.63,15.99,11.89,24.47,17.08c4.3,2.63,8.6,5.25,12.8,8.05c2.07,1.38,4.11,2.8,6.11,4.28c0.18,0.13,0.89,0.67,1.1,0.83
	c0.19,0.15,0.75,0.59,0.89,0.7c1.04,0.83,2.07,1.69,3.08,2.56c9.44,8.2,16.01,19.18,17.14,31.16c1.18,12.52-2.43,25.11-10.88,34.73
	c-1.93,2.2-4.05,4.21-6.26,6.12c-0.94,0.82-1.9,1.61-2.87,2.39c-0.34,0.27-0.69,0.54-1.03,0.81c-0.09,0.07-0.97,0.74-1.17,0.88
	c-4.06,3.02-8.31,5.78-12.6,8.45c-8.29,5.17-16.82,10.01-24.6,15.94c-7.94,6.05-15.18,13.13-19.77,22.12
	c-3.29,6.45-5.16,13.41-5.9,20.53c3.58,2.41,7.36,4.54,11.29,6.38c0.01-1.15,0.05-2.31,0.12-3.46
	C222.99,398.43,223.05,397.71,223.12,396.99z"/>
<linearGradient id="SVGID_00000165198255917193114990000018018102844413804708_" gradientUnits="userSpaceOnUse" x1="294.259" y1="453.836" x2="268.2773" y2="187.414">
	<stop  offset="0" style="stop-color:#DBAE72"/>
	<stop  offset="1" style="stop-color:#997344"/>
</linearGradient>
<path style="fill:url(#SVGID_00000165198255917193114990000018018102844413804708_);" d="M276.95,351.56
	c-2.56-1.84-6.5-0.44-7.98,2.09c-1.72,2.94-0.47,6.14,2.09,7.98c7.5,5.4,14.68,12.28,18.89,21.12c0.22,0.46,0.43,0.93,0.63,1.4
	c0.02,0.09,0.54,1.41,0.59,1.57c0.41,1.15,0.78,2.32,1.11,3.5c0.8,2.89,1.3,5.68,1.52,8.14c0.15,1.64,0.23,3.29,0.26,4.93
	c1.4-0.65,2.73-1.34,3.85-2.02l0.19-0.11l0.19-0.11c2.39-1.33,4.7-2.76,6.93-4.3c-0.67-6.27-2.21-12.44-4.94-18.37
	C295.29,366.58,286.45,358.4,276.95,351.56z"/>
<linearGradient id="SVGID_00000103259255367275329670000003450266485324749454_" gradientUnits="userSpaceOnUse" x1="306.13" y1="452.6784" x2="280.1483" y2="186.2563">
	<stop  offset="0" style="stop-color:#DBAE72"/>
	<stop  offset="1" style="stop-color:#997344"/>
</linearGradient>
<path style="fill:url(#SVGID_00000103259255367275329670000003450266485324749454_);" d="M271.06,216.55
	c-2.55,1.84-3.79,5.08-2.09,7.98c1.48,2.52,5.41,3.94,7.98,2.09c7.95-5.72,15.42-12.38,20.57-20.73c-2.24-4.02-4.53-8.06-6.85-12.1
	c-0.23,0.57-0.47,1.12-0.72,1.64C285.73,204.3,278.57,211.14,271.06,216.55z"/>
<g>
	<path class="st8" d="M29.91,507.28h12.46v56.63H29.91V507.28z"/>
	<path class="st8" d="M56.53,507.28h11.49l26.54,34.87v-34.87h12.3v56.63h-10.6l-27.43-36v36h-12.3V507.28z"/>
	<path class="st8" d="M120.43,507.28h11.49l26.54,34.87v-34.87h12.3v56.63h-10.6l-27.43-36v36h-12.3V507.28z"/>
	<path class="st8" d="M181.83,535.76v-0.16c0-16.1,12.7-29.29,30.18-29.29c17.47,0,30.01,13.03,30.01,29.13v0.16
		c0,16.1-12.7,29.29-30.18,29.29C194.37,564.88,181.83,551.86,181.83,535.76z M229,535.76v-0.16c0-9.71-7.12-17.8-17.15-17.8
		c-10.03,0-16.99,7.93-16.99,17.64v0.16c0,9.71,7.12,17.8,17.15,17.8S229,545.47,229,535.76z"/>
	<path class="st8" d="M244.61,507.28h13.75l14.81,39.88l14.81-39.88h13.43l-22.89,57.04h-11L244.61,507.28z"/>
	<path class="st8" d="M321.46,506.88h11.49l24.27,57.04H344.2l-5.18-12.7h-23.95l-5.18,12.7h-12.7L321.46,506.88z M334.57,540.21
		l-7.52-18.37l-7.52,18.37H334.57z"/>
	<path class="st9" d="M390.22,507.28h22.09c17.8,0,30.1,12.22,30.1,28.15v0.16c0,15.94-12.3,28.32-30.1,28.32h-22.09V507.28z
		 M402.68,518.53v34.14h9.63c10.11,0,17.07-6.88,17.07-16.91v-0.16c0-10.03-6.96-17.07-17.07-17.07H402.68z"/>
	<path class="st9" d="M469.58,533.25l8.17-12.7h12.86l-14.64,21.2l15.29,22.17h-13.19l-8.74-13.51l-8.74,13.51h-12.86l15.21-22.01
		l-14.64-21.36h13.19L469.58,533.25z"/>
</g>
<g>
	<path class="st8" d="M500.98,512.83c0-7.06,4.9-11.96,11.96-11.96c7.06,0,11.96,4.9,11.96,11.96c0,7.06-4.9,11.96-11.96,11.96
		C505.87,524.79,500.98,519.89,500.98,512.83z M522.38,512.83c0-5.7-3.88-9.65-9.44-9.65c-5.56,0-9.44,3.95-9.44,9.65
		c0,5.7,3.88,9.65,9.44,9.65C518.5,522.48,522.38,518.53,522.38,512.83z M508.25,506.78h5.39c3.01,0,4.65,1.4,4.65,3.99
		c0,1.92-0.91,3.22-2.62,3.71l3.25,4.41h-3.01l-2.9-4.13h-2.27v4.13h-2.48V506.78z M513.46,512.44c1.64,0,2.31-0.49,2.31-1.68
		s-0.66-1.68-2.31-1.68h-2.73v3.36H513.46z"/>
</g>
<g>
	<path class="st8" d="M123.73,588.7h1.47l8.43,12.42l8.43-12.42h1.47v21h-1.56v-18.24l-8.31,12.09h-0.12l-8.31-12.09v18.24h-1.5
		V588.7z"/>
	<path class="st8" d="M155.77,588.7h14.94v1.44h-13.38v8.25h12.03v1.44h-12.03v8.43h13.53v1.44h-15.09V588.7z"/>
	<path class="st8" d="M181.87,588.7h6.99c6.6,0,11.16,4.53,11.16,10.44v0.06c0,5.91-4.56,10.5-11.16,10.5h-6.99V588.7z
		 M183.43,590.14v18.12h5.43c5.85,0,9.54-3.99,9.54-9v-0.06c0-4.95-3.69-9.06-9.54-9.06H183.43z"/>
	<path class="st8" d="M211.54,588.7h1.56v21h-1.56V588.7z"/>
	<path class="st8" d="M224.62,599.26v-0.06c0-5.94,4.44-10.86,10.5-10.86c3.72,0,6,1.35,8.16,3.36l-1.11,1.14
		c-1.83-1.77-3.93-3.09-7.08-3.09c-5.04,0-8.85,4.11-8.85,9.39v0.06c0,5.28,3.87,9.45,8.88,9.45c3.03,0,5.1-1.14,7.23-3.27
		l1.05,1.02c-2.25,2.16-4.62,3.66-8.34,3.66C229.03,610.06,224.62,605.29,224.62,599.26z"/>
	<path class="st8" d="M261.67,588.55h1.5l9.78,21.15h-1.71l-2.67-5.88h-12.39l-2.67,5.88h-1.62L261.67,588.55z M267.91,602.41
		l-5.52-12.15l-5.55,12.15H267.91z"/>
	<path class="st8" d="M283.39,588.7h1.56v19.56h12.33v1.44h-13.89V588.7z"/>
	<path class="st8" d="M322.81,588.7h1.56v19.56h12.33v1.44h-13.89V588.7z"/>
	<path class="st8" d="M355.21,588.55h1.5l9.78,21.15h-1.71l-2.67-5.88h-12.39l-2.67,5.88h-1.62L355.21,588.55z M361.45,602.41
		l-5.52-12.15l-5.55,12.15H361.45z"/>
	<path class="st8" d="M376.93,588.7h8.67c2.4,0,4.29,0.69,5.46,1.86c0.9,0.9,1.35,2.01,1.35,3.3v0.06c0,2.88-1.86,4.26-3.57,4.98
		c2.52,0.66,4.74,2.13,4.74,5.01v0.06c0,3.51-3,5.73-7.53,5.73h-9.12V588.7z M390.82,594.01c0-2.31-1.86-3.87-5.25-3.87h-7.08v8.25
		h6.93c3.12,0,5.4-1.53,5.4-4.32V594.01z M391.99,603.91c0-2.61-2.22-4.08-6.39-4.08h-7.11v8.43h7.62c3.6,0,5.88-1.65,5.88-4.29
		V603.91z"/>
</g>
<linearGradient id="SVGID_00000168819519911123890490000004754107048051775660_" gradientUnits="userSpaceOnUse" x1="246.9001" y1="458.4545" x2="220.9185" y2="192.0325">
	<stop  offset="0" style="stop-color:#DBAE72"/>
	<stop  offset="1" style="stop-color:#997344"/>
</linearGradient>
<path style="fill:url(#SVGID_00000168819519911123890490000004754107048051775660_);" d="M245.12,340.8
	c3.38-2.3,3.38-7.24,0.03-9.59c-0.94-0.66-1.88-1.34-2.81-2.03c-0.19-0.14-1.08-0.81-1.17-0.88c-0.34-0.27-0.69-0.54-1.03-0.81
	c-0.97-0.78-1.93-1.58-2.87-2.39c-2.21-1.92-4.33-3.93-6.26-6.12c-8.45-9.62-12.06-22.21-10.88-34.73
	c1.13-11.98,7.7-22.96,17.14-31.16c1.01-0.88,2.04-1.73,3.08-2.56c0.14-0.11,0.7-0.55,0.89-0.7c0.22-0.16,0.92-0.69,1.1-0.83
	c0.63-0.47,1.78-1.27,3.1-2.17c3.56-2.43,3.36-7.74-0.37-9.9v0c-1.97-1.14-4.43-1.04-6.29,0.27c-7.29,5.1-14.05,10.83-19.48,18.08
	c-17.22,22.98-13.53,56.25,7.14,75.75c3.76,3.55,7.83,6.75,12.05,9.73C240.47,342.15,243.11,342.17,245.12,340.8L245.12,340.8z"/>
<g>
	<path class="st11" d="M258.04,35.61c-56.13,86.1-105.44,161.34-127.62,225.89c7.85-8.48,16.2-16.76,25.02-24.76
		c18.24-16.55,37.48-31.03,57.02-43.07c13.4-23.59,28.88-48.56,45.58-74.67c0,0,0,0,0,0c53.64,83.88,94.71,156.03,94.71,208.06
		c0,35.64-19.8,66.75-48.97,82.91c-24.98,21.96-51.7,40.07-78.39,53.32c10.48,2.5,21.41,3.83,32.65,3.83
		c77.35,0,140.06-62.71,140.06-140.06S334.38,152.71,258.04,35.61z"/>
	<g>
		
			<linearGradient id="SVGID_00000085962386158208383900000017348980746875563183_" gradientUnits="userSpaceOnUse" x1="365.9299" y1="510.9852" x2="208.7189" y2="122.5815">
			<stop  offset="0.067" style="stop-color:#13625D"/>
			<stop  offset="0.3995" style="stop-color:#6CC1B6"/>
			<stop  offset="0.7421" style="stop-color:#13625D"/>
			<stop  offset="0.9418" style="stop-color:#092320"/>
			<stop  offset="1" style="stop-color:#092320"/>
		</linearGradient>
		<path style="fill:url(#SVGID_00000085962386158208383900000017348980746875563183_);" d="M258.04,35.61V119c0,0,0,0,0,0
			c53.64,83.88,94.71,156.03,94.71,208.06c0,35.64-19.8,66.75-48.97,82.91c-24.98,21.96-51.7,40.07-78.39,53.32
			c10.48,2.5,21.41,3.83,32.65,3.83c77.35,0,140.06-62.71,140.06-140.06S334.38,152.71,258.04,35.61z"/>
		
			<linearGradient id="SVGID_00000085955915905767847670000014575523991620070540_" gradientUnits="userSpaceOnUse" x1="134.9636" y1="290.1303" x2="247.2572" y2="88.0018">
			<stop  offset="0" style="stop-color:#B4D9CD"/>
			<stop  offset="0.5988" style="stop-color:#13625D"/>
			<stop  offset="0.8901" style="stop-color:#092320"/>
		</linearGradient>
		<path style="fill:url(#SVGID_00000085955915905767847670000014575523991620070540_);" d="M155.44,236.74
			c18.24-16.55,37.48-31.03,57.02-43.07c13.4-23.59,28.88-48.56,45.58-74.67V35.61c-56.13,86.1-105.44,161.34-127.62,225.89
			C138.27,253.02,146.63,244.74,155.44,236.74z"/>
	</g>
</g>
</svg>
