<svg width="282" height="433" viewBox="0 0 282 433" fill="none" xmlns="http://www.w3.org/2000/svg">
<path d="M117.26 287.21C108.13 278.31 103.05 266.43 103.05 254.09C103.05 241.75 108.13 229.87 117.26 220.97C122.65 215.72 114.39 207.47 109.01 212.72C97.89 223.56 91.38 238.53 91.38 254.09C91.38 269.66 97.88 284.63 109.01 295.46C114.39 300.71 122.65 292.47 117.26 287.21Z" fill="url(#paint0_linear_4_51)"/>
<path d="M138.93 257.98H99.98V250.2H138.93C141.08 250.2 142.82 251.94 142.82 254.09C142.82 256.24 141.08 257.98 138.93 257.98Z" fill="url(#paint1_linear_4_51)"/>
<path d="M151.9 239.6H100.6V231.82H151.9C154.05 231.82 155.79 233.56 155.79 235.71C155.79 237.86 154.05 239.6 151.9 239.6Z" fill="url(#paint2_linear_4_51)"/>
<path d="M151.9 276.36H100.6V268.58H151.9C154.05 268.58 155.79 270.32 155.79 272.47C155.79 274.62 154.05 276.36 151.9 276.36Z" fill="url(#paint3_linear_4_51)"/>
<path d="M41.8 205.45C30.16 216.01 19.44 226.98 9.69001 238.16C4.07001 257.08 0.980011 275.05 0.980011 292.07C0.980011 355.51 43.17 409.09 101.01 426.32C124.5 415.22 148.12 400.22 170.64 382.04C161.32 385.11 151.37 386.78 141.04 386.78C88.82 386.78 46.33 344.29 46.33 292.07C46.33 258.37 63.57 216.23 90.28 167.92C73.87 178.61 57.55 191.16 41.8 205.45Z" fill="url(#paint4_linear_4_51)"/>
<path d="M106.12 361.99C106.14 361.8 106.26 360.75 106.27 360.6C106.45 359.36 106.67 358.12 106.94 356.9C107.48 354.43 108.2 352 109.11 349.65C109.2 349.41 109.3 349.17 109.4 348.93C109.41 348.91 109.41 348.91 109.42 348.89C109.66 348.35 109.91 347.81 110.18 347.27C110.7 346.22 111.25 345.18 111.85 344.17C112.43 343.17 113.06 342.2 113.71 341.24C114.03 340.77 114.37 340.3 114.71 339.84C114.83 339.67 114.9 339.57 114.95 339.5C114.97 339.48 115.02 339.42 115.14 339.27C118.07 335.71 121.35 332.51 124.92 329.6C125.36 329.24 125.81 328.88 126.26 328.53C126.27 328.52 126.28 328.52 126.29 328.5C126.49 328.35 126.69 328.19 126.89 328.05C127.91 327.3 128.93 326.55 129.97 325.83C131.93 324.46 133.93 323.14 135.95 321.84C140.07 319.2 144.27 316.68 148.44 314.12C157.16 308.75 165.83 303.08 173.3 296.03C193.97 276.53 197.66 243.26 180.44 220.28C167.49 203 146.99 194.34 129.77 182.22C128.87 181.59 127.98 180.95 127.1 180.29C126.92 180.16 126.39 179.75 126.22 179.62C125.78 179.28 125.35 178.93 124.92 178.58C123.13 177.12 121.4 175.59 119.75 173.98C118.12 172.38 116.58 170.68 115.13 168.91C115.01 168.77 114.95 168.7 114.93 168.67C114.88 168.6 114.8 168.49 114.7 168.34C114.41 167.94 114.12 167.54 113.84 167.14C113.13 166.12 112.47 165.08 111.84 164.01C111.29 163.07 110.77 162.11 110.29 161.14C110.03 160.61 109.78 160.07 109.53 159.53C109.5 159.46 109.44 159.32 109.39 159.21C109.3 158.99 109.21 158.76 109.12 158.54C109.05 158.36 108.99 158.18 108.92 158C107.69 160.12 106.5 162.21 105.33 164.27L102 170.2C105.2 175.57 109.29 180.39 114.01 184.59C121.47 191.22 130 196.48 138.48 201.67C142.78 204.3 147.08 206.92 151.28 209.72C153.35 211.1 155.39 212.52 157.39 214C157.57 214.13 158.28 214.67 158.49 214.83C158.68 214.98 159.24 215.42 159.38 215.53C160.42 216.36 161.45 217.22 162.46 218.09C171.9 226.29 178.47 237.27 179.6 249.25C180.78 261.77 177.17 274.36 168.72 283.98C166.79 286.18 164.67 288.19 162.46 290.1C161.52 290.92 160.56 291.71 159.59 292.49C159.25 292.76 158.9 293.03 158.56 293.3C158.47 293.37 157.59 294.04 157.39 294.18C153.33 297.2 149.08 299.96 144.79 302.63C136.5 307.8 127.97 312.64 120.19 318.57C112.25 324.62 105.01 331.7 100.42 340.69C97.13 347.14 95.26 354.1 94.52 361.22C98.1 363.63 101.88 365.76 105.81 367.6C105.82 366.45 105.86 365.29 105.93 364.14C105.99 363.43 106.05 362.71 106.12 361.99Z" fill="url(#paint5_linear_4_51)"/>
<path d="M159.95 316.56C157.39 314.72 153.45 316.12 151.97 318.65C150.25 321.59 151.5 324.79 154.06 326.63C161.56 332.03 168.74 338.91 172.95 347.75C173.17 348.21 173.38 348.68 173.58 349.15C173.6 349.24 174.12 350.56 174.17 350.72C174.58 351.87 174.95 353.04 175.28 354.22C176.08 357.11 176.58 359.9 176.8 362.36C176.95 364 177.03 365.65 177.06 367.29C178.46 366.64 179.79 365.95 180.91 365.27L181.1 365.16L181.29 365.05C183.68 363.72 185.99 362.29 188.22 360.75C187.55 354.48 186.01 348.31 183.28 342.38C178.29 331.58 169.45 323.4 159.95 316.56Z" fill="url(#paint6_linear_4_51)"/>
<path d="M154.06 181.55C151.51 183.39 150.27 186.63 151.97 189.53C153.45 192.05 157.38 193.47 159.95 191.62C167.9 185.9 175.37 179.24 180.52 170.89C178.28 166.87 175.99 162.83 173.67 158.79C173.44 159.36 173.2 159.91 172.95 160.43C168.73 169.3 161.57 176.14 154.06 181.55Z" fill="url(#paint7_linear_4_51)"/>
<path d="M128.12 305.8C131.5 303.5 131.5 298.56 128.15 296.21C127.21 295.55 126.27 294.87 125.34 294.18C125.15 294.04 124.26 293.37 124.17 293.3C123.83 293.03 123.48 292.76 123.14 292.49C122.17 291.71 121.21 290.91 120.27 290.1C118.06 288.18 115.94 286.17 114.01 283.98C105.56 274.36 101.95 261.77 103.13 249.25C104.26 237.27 110.83 226.29 120.27 218.09C121.28 217.21 122.31 216.36 123.35 215.53C123.49 215.42 124.05 214.98 124.24 214.83C124.46 214.67 125.16 214.14 125.34 214C125.97 213.53 127.12 212.73 128.44 211.83C132 209.4 131.8 204.09 128.07 201.93C126.1 200.79 123.64 200.89 121.78 202.2C114.49 207.3 107.73 213.03 102.3 220.28C85.08 243.26 88.77 276.53 109.44 296.03C113.2 299.58 117.27 302.78 121.49 305.76C123.47 307.15 126.11 307.17 128.12 305.8Z" fill="url(#paint8_linear_4_51)"/>
<path d="M141.04 0.610001C84.91 86.71 35.6 161.95 13.42 226.5C21.27 218.02 29.62 209.74 38.44 201.74C56.68 185.19 75.92 170.71 95.46 158.67C108.86 135.08 124.34 110.11 141.04 84C194.68 167.88 235.75 240.03 235.75 292.06C235.75 327.7 215.95 358.81 186.78 374.97C161.8 396.93 135.08 415.04 108.39 428.29C118.87 430.79 129.8 432.12 141.04 432.12C218.39 432.12 281.1 369.41 281.1 292.06C281.1 214.71 217.38 117.71 141.04 0.610001Z" fill="#003531"/>
<path d="M141.04 0.610001V84C194.68 167.88 235.75 240.03 235.75 292.06C235.75 327.7 215.95 358.81 186.78 374.97C161.8 396.93 135.08 415.04 108.39 428.29C118.87 430.79 129.8 432.12 141.04 432.12C218.39 432.12 281.1 369.41 281.1 292.06C281.1 214.71 217.38 117.71 141.04 0.610001Z" fill="url(#paint9_linear_4_51)"/>
<path d="M38.44 201.74C56.68 185.19 75.92 170.71 95.46 158.67C108.86 135.08 124.34 110.11 141.04 84V0.610001C84.91 86.71 35.6 161.95 13.42 226.5C21.27 218.02 29.63 209.74 38.44 201.74Z" fill="url(#paint10_linear_4_51)"/>
<defs>
<linearGradient id="paint0_linear_4_51" x1="123.456" y1="424.083" x2="97.4748" y2="157.661" gradientUnits="userSpaceOnUse">
<stop stop-color="#DBAE72"/>
<stop offset="1" stop-color="#997344"/>
</linearGradient>
<linearGradient id="paint1_linear_4_51" x1="137.662" y1="422.698" x2="111.68" y2="156.276" gradientUnits="userSpaceOnUse">
<stop stop-color="#DBAE72"/>
<stop offset="1" stop-color="#997344"/>
</linearGradient>
<linearGradient id="paint2_linear_4_51" x1="146.168" y1="421.868" x2="120.187" y2="155.446" gradientUnits="userSpaceOnUse">
<stop stop-color="#DBAE72"/>
<stop offset="1" stop-color="#997344"/>
</linearGradient>
<linearGradient id="paint3_linear_4_51" x1="142.617" y1="422.214" x2="116.635" y2="155.792" gradientUnits="userSpaceOnUse">
<stop stop-color="#DBAE72"/>
<stop offset="1" stop-color="#997344"/>
</linearGradient>
<linearGradient id="paint4_linear_4_51" x1="85.8076" y1="464.691" x2="85.8076" y2="205.383" gradientUnits="userSpaceOnUse">
<stop stop-color="#B4D9CD"/>
<stop offset="0.0678" stop-color="#90B8AF"/>
<stop offset="0.1788" stop-color="#67948D"/>
<stop offset="0.2865" stop-color="#477C76"/>
<stop offset="0.3887" stop-color="#2E6D67"/>
<stop offset="0.4831" stop-color="#1B645F"/>
<stop offset="0.5622" stop-color="#13625D"/>
<stop offset="1" stop-color="#003531"/>
</linearGradient>
<linearGradient id="paint5_linear_4_51" x1="134.293" y1="140.738" x2="146.865" y2="381.862" gradientUnits="userSpaceOnUse">
<stop stop-color="#DBAE72"/>
<stop offset="1" stop-color="#997344"/>
</linearGradient>
<linearGradient id="paint6_linear_4_51" x1="177.259" y1="418.836" x2="151.277" y2="152.414" gradientUnits="userSpaceOnUse">
<stop stop-color="#DBAE72"/>
<stop offset="1" stop-color="#997344"/>
</linearGradient>
<linearGradient id="paint7_linear_4_51" x1="189.13" y1="417.678" x2="163.148" y2="151.256" gradientUnits="userSpaceOnUse">
<stop stop-color="#DBAE72"/>
<stop offset="1" stop-color="#997344"/>
</linearGradient>
<linearGradient id="paint8_linear_4_51" x1="129.9" y1="423.454" x2="103.919" y2="157.032" gradientUnits="userSpaceOnUse">
<stop stop-color="#DBAE72"/>
<stop offset="1" stop-color="#997344"/>
</linearGradient>
<linearGradient id="paint9_linear_4_51" x1="248.93" y1="475.985" x2="91.7189" y2="87.5815" gradientUnits="userSpaceOnUse">
<stop offset="0.067" stop-color="#13625D"/>
<stop offset="0.3995" stop-color="#6CC1B6"/>
<stop offset="0.7421" stop-color="#13625D"/>
<stop offset="0.9418" stop-color="#092320"/>
<stop offset="1" stop-color="#092320"/>
</linearGradient>
<linearGradient id="paint10_linear_4_51" x1="17.9636" y1="255.13" x2="130.257" y2="53.0018" gradientUnits="userSpaceOnUse">
<stop stop-color="#B4D9CD"/>
<stop offset="0.5988" stop-color="#13625D"/>
<stop offset="0.8901" stop-color="#092320"/>
</linearGradient>
</defs>
</svg>
